#!OML:ASF F:\VICON\USERDATA\INSTALL\SteveWalk\SteveWalk.ASF
:FULLY-SPECIFIED
:DEGREES
242
root -0.0701689 16.1697 8.13486 18.4366 3.12172 -0.765391
lowerback -13.6327 -1.67097 5.28747
upperback -5.39156 -2.95734 2.55786
thorax 1.81933 -1.50965 -0.741418
lowerneck -6.81351 0.829622 1.13669
upperneck 4.27436 1.21878 -3.67249
head 2.58328 0.504706 -1.32807
rclavicle -2.82274e-014 -1.74931e-014
rhumerus -89.9063 -42.4515 -0.15233
rradius 11.7831
rwrist 54.5264
rhand -14.2926 -37.2533
rfingers 7.12502
rthumb 11.8469 -66.8982
lclavicle -2.82274e-014 -1.74931e-014
lhumerus -23.4813 0.734931 80.8063
lradius 56.3697
lwrist 12.9735
lhand -23.3664 -18.5533
lfingers 7.12502
lthumb 3.08926 11.4041
rfemur -47.5296 -1.3378 24.4089
rtibia 38.8151
rfoot -10.9614 4.96965
rtoes -16.6908
lfemur -15.8571 -1.44005 -18.2998
ltibia 60.3376
lfoot 21.5529 -8.74729
ltoes -15.268
243
root -0.0885633 16.1994 8.3511 18.4837 2.99438 -0.900353
lowerback -14.056 -1.50785 5.16525
upperback -5.09422 -2.77515 2.6406
thorax 2.37968 -1.3995 -0.582973
lowerneck -7.10237 0.749667 1.16321
upperneck 4.2374 1.12144 -3.90261
head 2.62573 0.446591 -1.41283
rclavicle -1.55797e-014 -3.18055e-015
rhumerus -87.9667 -43.8364 -2.98745
rradius 11.8694
rwrist 53.5529
rhand -13.5012 -37.773
rfingers 7.12502
rthumb 12.6101 -67.3724
lclavicle -1.55797e-014 -3.18055e-015
lhumerus -23.3421 1.15707 81.3067
lradius 54.5727
lwrist 12.167
lhand -23.2782 -18.6485
lfingers 7.12502
lthumb 3.17442 11.3076
rfemur -46.7972 -1.06272 24.5967
rtibia 39.0317
rfoot -11.7873 4.66318
rtoes -17.3506
lfemur -17.6883 -0.952713 -18.0891
ltibia 62.7278
lfoot 19.3444 -8.06293
ltoes -16.2404
244
root -0.0989396 16.2276 8.58268 18.4765 2.64662 -0.9154
lowerback -14.1548 -1.28565 5.06737
upperback -5.16561 -2.47127 2.61552
thorax 2.37475 -1.24894 -0.509731
lowerneck -6.70672 0.670478 1.15766
upperneck 4.28703 1.02816 -4.0722
head 2.56799 0.398129 -1.47052
rclavicle 6.16232e-015 -1.59028e-014
rhumerus -87.035 -44.6516 -4.17077
rradius 11.7548
rwrist 53.4736
rhand -13.6293 -37.2625
rfingers 7.12502
rthumb 12.4865 -66.8694
lclavicle 6.16232e-015 -1.59028e-014
lhumerus -24.0751 1.49262 81.7985
lradius 52.8095
lwrist 11.2737
lhand -23.3638 -19.1782
lfingers 7.12502
lthumb 3.09178 10.7792
rfemur -45.8601 -0.873312 24.6446
rtibia 39.1157
rfoot -12.7305 4.57746
rtoes -17.4272
lfemur -19.1313 -0.421669 -18.1824
ltibia 64.8404
lfoot 16.0417 -7.23813
ltoes -15.453
245
root -0.119855 16.2573 8.77838 18.7246 3.16217 -0.52055
lowerback -14.1162 -1.45188 4.50092
upperback -5.40484 -2.59901 2.6005
thorax 2.12414 -1.31579 -0.222413
lowerneck -6.40943 0.63204 1.0859
upperneck 4.53898 0.992665 -4.08842
head 2.59541 0.379262 -1.46566
rclavicle -2.89729e-014 1.59028e-015
rhumerus -85.5276 -45.6181 -6.17867
rradius 11.7146
rwrist 52.6852
rhand -14.7217 -37.1846
rfingers 7.12502
rthumb 11.4332 -66.8529
lclavicle -2.89729e-014 1.59028e-015
lhumerus -24.7884 1.92824 82.2209
lradius 51.0585
lwrist 10.2447
lhand -23.0735 -18.9929
lfingers 7.12502
lthumb 3.37212 10.9602
rfemur -45.2861 -1.38906 24.4479
rtibia 39.1583
rfoot -13.4174 4.3051
rtoes -16.9073
lfemur -21.2718 -0.752964 -18.4128
ltibia 66.8783
lfoot 13.3335 -6.46765
ltoes -16.3597
246
root -0.140417 16.2858 8.97036 18.9247 3.11365 -0.501461
lowerback -14.1034 -1.36908 4.17761
upperback -5.51581 -2.44222 2.64296
thorax 2.02295 -1.23717 0.029074
lowerneck -6.47302 0.586782 1.14166
upperneck 4.98475 0.949661 -4.209
head 2.75842 0.349631 -1.52145
rclavicle -3.03147e-014 1.59028e-014
rhumerus -81.3566 -46.1981 -11.9715
rradius 11.9419
rwrist 49.5331
rhand -15.4045 -37.1035
rfingers 7.12502
rthumb 10.7746 -66.8072
lclavicle -3.03147e-014 1.59028e-014
lhumerus -25.1205 2.46891 82.5974
lradius 48.9133
lwrist 8.8503
lhand -22.6277 -18.66
lfingers 7.12502
lthumb 3.8026 11.2858
rfemur -44.6647 -1.18459 24.4588
rtibia 39.0676
rfoot -13.9574 4.06199
rtoes -15.9729
lfemur -23.475 -0.446423 -18.404
ltibia 68.7877
lfoot 11.5858 -5.95204
ltoes -18.5691
247
root -0.153335 16.3131 9.16263 19.2238 2.82756 -0.503618
lowerback -14.3579 -1.21653 3.90466
upperback -5.54044 -2.22049 2.6921
thorax 2.15316 -1.1216 0.260715
lowerneck -6.68474 0.609685 1.20198
upperneck 5.3534 1.00198 -4.42439
head 2.92877 0.363041 -1.60573
rclavicle 2.41275e-014 5.56597e-015
rhumerus -78.3544 -47.062 -15.7143
rradius 11.9677
rwrist 48.0865
rhand -15.5969 -35.9208
rfingers 7.12502
rthumb 10.589 -65.6341
lclavicle 2.41275e-014 5.56597e-015
lhumerus -25.4423 3.27644 82.963
lradius 46.6506
lwrist 7.19381
lhand -22.4255 -18.7807
lfingers 7.12502
lthumb 3.9979 11.1615
rfemur -44.0533 -0.814646 24.4084
rtibia 38.7115
rfoot -14.3868 3.9575
rtoes -15.0391
lfemur -25.7317 0.0177334 -18.5055
ltibia 70.4866
lfoot 10.1354 -5.51504
ltoes -10.058
248
root -0.152463 16.3487 9.36789 19.3958 2.821 -0.51586
lowerback -14.7643 -1.15275 3.90559
upperback -5.51349 -2.1624 2.73049
thorax 2.40167 -1.08784 0.299006
lowerneck -6.46641 0.654171 0.98103
upperneck 5.43387 1.08132 -4.37078
head 2.91394 0.401163 -1.54464
rclavicle 3.45388e-015 -2.38542e-014
rhumerus -74.2402 -47.4683 -20.8341
rradius 12.1147
rwrist 45.8154
rhand -15.7993 -34.9599
rfingers 7.12502
rthumb 10.3938 -64.683
lclavicle 3.45388e-015 -2.38542e-014
lhumerus -26.0521 4.17696 83.2092
lradius 44.4857
lwrist 5.79493
lhand -22.0829 -19.1467
lfingers 7.12502
lthumb 4.32869 10.789
rfemur -43.2143 -1.05884 24.5286
rtibia 38.4135
rfoot -15.1221 4.12385
rtoes -14.2925
lfemur -27.7136 0.186727 -18.6033
ltibia 71.8746
lfoot 8.95246 -5.09801
ltoes -5.90383
249
root -0.149566 16.4162 9.58553 19.1464 3.04325 -0.99712
lowerback -14.7774 -1.04072 4.49751
upperback -5.44557 -2.10349 2.81906
thorax 2.46073 -1.06051 0.0683037
lowerneck -5.95815 0.578804 0.906558
upperneck 5.38973 0.986412 -4.40764
head 2.79961 0.357435 -1.54502
rclavicle -3.69491e-014 1.82882e-014
rhumerus -66.5069 -45.5899 -31.3947
rradius 12.8835
rwrist 39.2686
rhand -16.0981 -35.0274
rfingers 7.12502
rthumb 10.1055 -64.7648
lclavicle -3.69491e-014 1.82882e-014
lhumerus -26.7848 4.83211 83.3677
lradius 42.434
lwrist 4.70092
lhand -21.8473 -19.4519
lfingers 7.12502
lthumb 4.5562 10.4791
rfemur -41.6628 -1.44077 25.1886
rtibia 37.9064
rfoot -15.9167 4.5011
rtoes -12.4995
lfemur -29.2829 0.297552 -18.1015
ltibia 72.8525
lfoot 8.61441 -4.29671
ltoes 0.400359
250
root -0.179095 16.4079 9.78859 18.9571 2.39358 -0.707321
lowerback -14.747 -0.863247 3.68281
upperback -5.34851 -1.7552 2.70816
thorax 2.58156 -0.879617 0.465177
lowerneck -5.6687 0.468397 1.04744
upperneck 5.44168 0.840117 -4.59649
head 2.76203 0.284117 -1.63769
rclavicle 1.93815e-015 -4.77083e-015
rhumerus -61.1195 -44.055 -38.6576
rradius 13.3964
rwrist 34.7285
rhand -16.3958 -35.0286
rfingers 7.12502
rthumb 9.81834 -64.7797
lclavicle 1.93815e-015 -4.77083e-015
lhumerus -27.4432 5.39612 83.4699
lradius 40.3515
lwrist 3.56319
lhand -21.7573 -19.8215
lfingers 7.12502
lthumb 4.64311 10.1077
rfemur -40.5639 -0.406209 24.6036
rtibia 37.6354
rfoot -16.2231 3.99359
rtoes -11.3343
lfemur -30.2479 1.06743 -18.5635
ltibia 73.5732
lfoot 6.03387 -3.48849
ltoes -6.0527
251
root -0.173942 16.4429 9.99074 18.7394 2.84239 -0.92215
lowerback -14.619 -0.854573 4.15085
upperback -5.29632 -1.80178 2.68532
thorax 2.55 -0.905792 0.172766
lowerneck -5.42744 0.443674 1.08046
upperneck 5.44869 0.807793 -4.65361
head 2.71907 0.269675 -1.66249
rclavicle 2.00276e-014 -4.92986e-014
rhumerus -57.4541 -43.519 -43.0262
rradius 13.5198
rwrist 32.6262
rhand -16.3497 -34.8503
rfingers 7.12502
rthumb 9.86281 -64.5993
lclavicle 2.00276e-014 -4.92986e-014
lhumerus -28.0113 6.10657 83.4723
lradius 38.031
lwrist 2.3769
lhand -21.317 -19.8739
lfingers 7.12502
lthumb 5.06829 10.0455
rfemur -39.2201 -0.855816 24.9999
rtibia 37.202
rfoot -16.9153 3.77308
rtoes -11.6538
lfemur -31.847 0.813344 -18.2847
ltibia 74.0574
lfoot 5.50838 -2.48434
ltoes 0.0251173
252
root -0.183173 16.4657 10.1972 18.7664 2.71531 -0.482766
lowerback -14.6494 -0.839502 3.63489
upperback -5.36367 -1.70279 2.51734
thorax 2.50987 -0.855305 0.302879
lowerneck -5.33414 0.427973 1.03981
upperneck 5.69955 0.795773 -4.59946
head 2.78467 0.262731 -1.64009
rclavicle -3.3048e-015 -2.38542e-015
rhumerus -53.0533 -41.6328 -48.7662
rradius 14.0857
rwrist 29.0163
rhand -16.3549 -34.451
rfingers 7.12502
rthumb 9.85779 -64.2002
lclavicle -3.3048e-015 -2.38542e-015
lhumerus -28.6278 6.85537 83.4167
lradius 35.584
lwrist 1.10876
lhand -20.5838 -19.3882
lfingers 7.12502
lthumb 5.77616 10.5131
rfemur -38.3053 -0.917525 24.5528
rtibia 36.9643
rfoot -17.6309 3.63301
rtoes -12.1583
lfemur -33.4027 0.851965 -18.8967
ltibia 74.2748
lfoot 4.50164 -1.27395
ltoes 0.726754
253
root -0.185096 16.492 10.4067 18.7596 2.77326 -0.328463
lowerback -14.6464 -0.812329 3.5019
upperback -5.43581 -1.64116 2.41601
thorax 2.43472 -0.825846 0.282509
lowerneck -5.38397 0.414661 0.996734
upperneck 6.18557 0.793074 -4.50285
head 2.95711 0.257392 -1.6063
rclavicle -8.49804e-015 -7.95139e-016
rhumerus -48.6442 -38.8736 -54.7269
rradius 14.9045
rwrist 24.6141
rhand -16.6977 -34.26
rfingers 7.12502
rthumb 9.52707 -64.0246
lclavicle -8.49804e-015 -7.95139e-016
lhumerus -29.392 7.45845 83.3355
lradius 33.343
lwrist -0.0969367
lhand -20.2699 -18.2738
lfingers 7.12502
lthumb 6.07927 11.619
rfemur -37.2136 -1.40718 24.5283
rtibia 36.5258
rfoot -18.3012 3.93341
rtoes -12.0202
lfemur -34.8472 0.904308 -19.2457
ltibia 74.2854
lfoot 5.21468 0.606481
ltoes 7.32671
254
root -0.189547 16.516 10.6086 18.6932 2.99947 -0.498914
lowerback -14.7011 -0.811802 3.67909
upperback -5.37018 -1.67071 2.42987
thorax 2.52715 -0.839688 0.190928
lowerneck -5.274 0.422319 1.01295
upperneck 6.2541 0.807471 -4.54703
head 2.96074 0.263867 -1.62338
rclavicle -1.73937e-016 -1.43125e-014
rhumerus -44.5337 -35.7963 -60.2133
rradius 15.8228
rwrist 20.2685
rhand -16.9327 -34.4304
rfingers 7.12502
rthumb 9.30027 -64.2052
lclavicle -1.73937e-016 -1.43125e-014
lhumerus -30.0125 8.05771 83.1828
lradius 31.0504
lwrist -1.27356
lhand -20.4526 -17.7263
lfingers 7.12502
lthumb 5.90284 12.1715
rfemur -36.1322 -1.79284 24.8676
rtibia 36.1953
rfoot -18.742 4.11076
rtoes -10.6412
lfemur -36.2675 0.986335 -19.1672
ltibia 74.1215
lfoot 1.03847 0.0740228
ltoes -5.49778
255
root -0.201112 16.5304 10.8069 18.5927 2.97159 -0.432108
lowerback -14.7173 -0.759885 3.5251
upperback -5.29459 -1.58176 2.35277
thorax 2.61993 -0.792903 0.210161
lowerneck -5.18166 0.385477 1.0333
upperneck 6.31411 0.76453 -4.63136
head 2.96352 0.240461 -1.6569
rclavicle -1.56543e-015 7.95139e-016
rhumerus -41.2488 -32.6977 -64.7668
rradius 16.9169
rwrist 16.3217
rhand -16.7989 -34.7492
rfingers 7.12502
rthumb 9.42934 -64.5182
lclavicle -1.56543e-015 7.95139e-016
lhumerus -30.551 8.72823 82.9376
lradius 28.4996
lwrist -2.73492
lhand -20.7407 -18.5331
lfingers 7.12502
lthumb 5.62475 11.3722
rfemur -35.0877 -1.80238 24.8435
rtibia 35.9392
rfoot -19.1087 4.17513
rtoes -8.677
lfemur -37.5543 1.12384 -19.3494
ltibia 73.7756
lfoot -0.381434 0.724056
ltoes -4.71466
